<mxfile host="app.diagrams.net" modified="2024-02-14T18:51:47.488Z" agent="Mozilla/5.0 (Windows NT 10.0; Win64; x64) AppleWebKit/537.36 (KHTML, like Gecko) Chrome/120.0.0.0 Safari/537.36" etag="wHD2kg79D0KHoLZBFkpP" version="22.1.21" type="github">
  <diagram name="multi-region" id="RcKfoleNUnb_njqzdtlZ">
    <mxGraphModel dx="4230" dy="2687" grid="1" gridSize="10" guides="1" tooltips="1" connect="1" arrows="1" fold="1" page="1" pageScale="1" pageWidth="850" pageHeight="1100" math="0" shadow="0">
      <root>
        <mxCell id="0" />
        <mxCell id="1" parent="0" />
        <mxCell id="jCWdny8o6_WcaCbqRE-o-86" value="&lt;font style=&quot;font-size: 20px;&quot;&gt;&lt;b style=&quot;font-size: 20px;&quot;&gt;Shared VPC prod&lt;br style=&quot;font-size: 20px;&quot;&gt;ulta-dsp-prod&lt;/b&gt;&lt;/font&gt;" style="rounded=0;whiteSpace=wrap;html=1;align=left;verticalAlign=top;fontSize=20;" vertex="1" parent="1">
          <mxGeometry x="-120" y="110" width="2680" height="950" as="geometry" />
        </mxCell>
        <mxCell id="jCWdny8o6_WcaCbqRE-o-87" value="&lt;span style=&quot;font-size: 20px;&quot;&gt;&lt;b style=&quot;font-size: 20px;&quot;&gt;Prod GKE Fleet&lt;/b&gt;&lt;/span&gt;" style="rounded=0;whiteSpace=wrap;html=1;align=left;verticalAlign=top;dashed=1;dashPattern=1 2;fillColor=#ffcc99;strokeColor=#36393d;opacity=20;fontSize=20;" vertex="1" parent="1">
          <mxGeometry x="27" y="240" width="2380" height="740" as="geometry" />
        </mxCell>
        <mxCell id="jCWdny8o6_WcaCbqRE-o-1" value="&lt;b style=&quot;font-size: 20px;&quot;&gt;US-CENTRAL GKE&lt;/b&gt;" style="rounded=0;whiteSpace=wrap;html=1;verticalAlign=top;align=left;fontSize=20;" vertex="1" parent="1">
          <mxGeometry x="60" y="280" width="980" height="650" as="geometry" />
        </mxCell>
        <mxCell id="jCWdny8o6_WcaCbqRE-o-74" style="edgeStyle=orthogonalEdgeStyle;rounded=0;orthogonalLoop=1;jettySize=auto;html=1;exitX=0.5;exitY=1;exitDx=0;exitDy=0;fontSize=20;" edge="1" parent="1" source="jCWdny8o6_WcaCbqRE-o-18" target="jCWdny8o6_WcaCbqRE-o-25">
          <mxGeometry relative="1" as="geometry" />
        </mxCell>
        <mxCell id="jCWdny8o6_WcaCbqRE-o-75" value="Service Calls" style="edgeLabel;html=1;align=center;verticalAlign=middle;resizable=0;points=[];fontSize=20;" vertex="1" connectable="0" parent="jCWdny8o6_WcaCbqRE-o-74">
          <mxGeometry x="-0.0219" y="-1" relative="1" as="geometry">
            <mxPoint as="offset" />
          </mxGeometry>
        </mxCell>
        <mxCell id="jCWdny8o6_WcaCbqRE-o-18" value="Namespace - dsp-dxl-prod" style="rounded=1;whiteSpace=wrap;html=1;verticalAlign=top;dashed=1;dashPattern=8 8;fontSize=20;" vertex="1" parent="1">
          <mxGeometry x="80" y="350" width="920" height="120" as="geometry" />
        </mxCell>
        <mxCell id="jCWdny8o6_WcaCbqRE-o-76" style="edgeStyle=orthogonalEdgeStyle;rounded=0;orthogonalLoop=1;jettySize=auto;html=1;exitX=0.5;exitY=1;exitDx=0;exitDy=0;entryX=0.5;entryY=0;entryDx=0;entryDy=0;fontSize=20;" edge="1" parent="1" source="jCWdny8o6_WcaCbqRE-o-25" target="jCWdny8o6_WcaCbqRE-o-26">
          <mxGeometry relative="1" as="geometry" />
        </mxCell>
        <mxCell id="jCWdny8o6_WcaCbqRE-o-77" value="Service Calls" style="edgeLabel;html=1;align=center;verticalAlign=middle;resizable=0;points=[];fontSize=20;" vertex="1" connectable="0" parent="jCWdny8o6_WcaCbqRE-o-76">
          <mxGeometry x="-0.0496" y="-4" relative="1" as="geometry">
            <mxPoint as="offset" />
          </mxGeometry>
        </mxCell>
        <mxCell id="jCWdny8o6_WcaCbqRE-o-25" value="Namespace - dsp-orchbuy-prod" style="rounded=1;whiteSpace=wrap;html=1;verticalAlign=top;dashed=1;dashPattern=8 8;strokeColor=#FF0000;strokeWidth=2;fontSize=20;" vertex="1" parent="1">
          <mxGeometry x="80" y="560" width="920" height="120" as="geometry" />
        </mxCell>
        <mxCell id="jCWdny8o6_WcaCbqRE-o-26" value="Namespace - dsp-corecarts-prod" style="rounded=1;whiteSpace=wrap;html=1;verticalAlign=top;dashed=1;dashPattern=8 8;strokeColor=#FF0000;strokeWidth=2;fontSize=20;" vertex="1" parent="1">
          <mxGeometry x="80" y="760" width="920" height="120" as="geometry" />
        </mxCell>
        <mxCell id="jCWdny8o6_WcaCbqRE-o-31" value="client-dxl-graphql" style="ellipse;whiteSpace=wrap;html=1;fontSize=20;" vertex="1" parent="1">
          <mxGeometry x="280" y="370" width="120" height="80" as="geometry" />
        </mxCell>
        <mxCell id="jCWdny8o6_WcaCbqRE-o-32" value="client-dxl-graphql" style="ellipse;whiteSpace=wrap;html=1;fontSize=20;" vertex="1" parent="1">
          <mxGeometry x="690" y="370" width="120" height="80" as="geometry" />
        </mxCell>
        <mxCell id="jCWdny8o6_WcaCbqRE-o-33" value="orch-buy-cart" style="ellipse;whiteSpace=wrap;html=1;fontSize=20;" vertex="1" parent="1">
          <mxGeometry x="280" y="590" width="120" height="80" as="geometry" />
        </mxCell>
        <mxCell id="jCWdny8o6_WcaCbqRE-o-34" value="orch-buy-cart" style="ellipse;whiteSpace=wrap;html=1;fontSize=20;" vertex="1" parent="1">
          <mxGeometry x="680" y="590" width="120" height="80" as="geometry" />
        </mxCell>
        <mxCell id="jCWdny8o6_WcaCbqRE-o-35" value="core-carts" style="ellipse;whiteSpace=wrap;html=1;fontSize=20;" vertex="1" parent="1">
          <mxGeometry x="270" y="790" width="120" height="80" as="geometry" />
        </mxCell>
        <mxCell id="jCWdny8o6_WcaCbqRE-o-36" value="core-carts" style="ellipse;whiteSpace=wrap;html=1;fontSize=20;" vertex="1" parent="1">
          <mxGeometry x="680" y="790" width="120" height="80" as="geometry" />
        </mxCell>
        <mxCell id="jCWdny8o6_WcaCbqRE-o-37" value="&lt;b style=&quot;font-size: 20px;&quot;&gt;US-EAST GKE&lt;/b&gt;" style="rounded=0;whiteSpace=wrap;html=1;verticalAlign=top;align=right;fontSize=20;" vertex="1" parent="1">
          <mxGeometry x="1400" y="280" width="980" height="660" as="geometry" />
        </mxCell>
        <mxCell id="jCWdny8o6_WcaCbqRE-o-78" style="edgeStyle=orthogonalEdgeStyle;rounded=0;orthogonalLoop=1;jettySize=auto;html=1;fontSize=20;" edge="1" parent="1" source="jCWdny8o6_WcaCbqRE-o-38" target="jCWdny8o6_WcaCbqRE-o-39">
          <mxGeometry relative="1" as="geometry" />
        </mxCell>
        <mxCell id="jCWdny8o6_WcaCbqRE-o-79" value="Service Calls" style="edgeLabel;html=1;align=center;verticalAlign=middle;resizable=0;points=[];fontSize=20;" vertex="1" connectable="0" parent="jCWdny8o6_WcaCbqRE-o-78">
          <mxGeometry x="0.0892" y="2" relative="1" as="geometry">
            <mxPoint as="offset" />
          </mxGeometry>
        </mxCell>
        <mxCell id="jCWdny8o6_WcaCbqRE-o-38" value="Namespace - dsp-dxl-prod" style="rounded=1;whiteSpace=wrap;html=1;verticalAlign=top;dashed=1;dashPattern=8 8;fontSize=20;" vertex="1" parent="1">
          <mxGeometry x="1420" y="350" width="920" height="120" as="geometry" />
        </mxCell>
        <mxCell id="jCWdny8o6_WcaCbqRE-o-80" style="edgeStyle=orthogonalEdgeStyle;rounded=0;orthogonalLoop=1;jettySize=auto;html=1;exitX=0.5;exitY=1;exitDx=0;exitDy=0;entryX=0.5;entryY=0;entryDx=0;entryDy=0;fontSize=20;" edge="1" parent="1" source="jCWdny8o6_WcaCbqRE-o-39" target="jCWdny8o6_WcaCbqRE-o-40">
          <mxGeometry relative="1" as="geometry" />
        </mxCell>
        <mxCell id="jCWdny8o6_WcaCbqRE-o-81" value="Service Calls" style="edgeLabel;html=1;align=center;verticalAlign=middle;resizable=0;points=[];fontSize=20;" vertex="1" connectable="0" parent="jCWdny8o6_WcaCbqRE-o-80">
          <mxGeometry x="0.1004" relative="1" as="geometry">
            <mxPoint as="offset" />
          </mxGeometry>
        </mxCell>
        <mxCell id="jCWdny8o6_WcaCbqRE-o-39" value="Namespace - dsp-orchbuy-prod" style="rounded=1;whiteSpace=wrap;html=1;verticalAlign=top;dashed=1;dashPattern=8 8;strokeColor=#FF0000;strokeWidth=2;fontSize=20;" vertex="1" parent="1">
          <mxGeometry x="1420" y="560" width="920" height="120" as="geometry" />
        </mxCell>
        <mxCell id="jCWdny8o6_WcaCbqRE-o-40" value="Namespace - dsp-corecarts-prod" style="rounded=1;whiteSpace=wrap;html=1;verticalAlign=top;dashed=1;dashPattern=8 8;strokeColor=#FF0000;strokeWidth=2;fontSize=20;" vertex="1" parent="1">
          <mxGeometry x="1420" y="760" width="920" height="120" as="geometry" />
        </mxCell>
        <mxCell id="jCWdny8o6_WcaCbqRE-o-41" value="client-dxl-graphql" style="ellipse;whiteSpace=wrap;html=1;fontSize=20;" vertex="1" parent="1">
          <mxGeometry x="1620" y="370" width="120" height="80" as="geometry" />
        </mxCell>
        <mxCell id="jCWdny8o6_WcaCbqRE-o-42" value="client-dxl-graphql" style="ellipse;whiteSpace=wrap;html=1;fontSize=20;" vertex="1" parent="1">
          <mxGeometry x="2030" y="370" width="120" height="80" as="geometry" />
        </mxCell>
        <mxCell id="jCWdny8o6_WcaCbqRE-o-43" value="orch-buy-cart" style="ellipse;whiteSpace=wrap;html=1;fontSize=20;" vertex="1" parent="1">
          <mxGeometry x="1620" y="590" width="120" height="80" as="geometry" />
        </mxCell>
        <mxCell id="jCWdny8o6_WcaCbqRE-o-44" value="orch-buy-cart" style="ellipse;whiteSpace=wrap;html=1;fontSize=20;" vertex="1" parent="1">
          <mxGeometry x="2020" y="590" width="120" height="80" as="geometry" />
        </mxCell>
        <mxCell id="jCWdny8o6_WcaCbqRE-o-45" value="core-carts" style="ellipse;whiteSpace=wrap;html=1;fontSize=20;" vertex="1" parent="1">
          <mxGeometry x="1610" y="790" width="120" height="80" as="geometry" />
        </mxCell>
        <mxCell id="jCWdny8o6_WcaCbqRE-o-46" value="core-carts" style="ellipse;whiteSpace=wrap;html=1;fontSize=20;" vertex="1" parent="1">
          <mxGeometry x="2020" y="790" width="120" height="80" as="geometry" />
        </mxCell>
        <mxCell id="jCWdny8o6_WcaCbqRE-o-47" value="Gateway&lt;br style=&quot;font-size: 20px;&quot;&gt;External Global Load Balancer" style="rounded=0;whiteSpace=wrap;html=1;strokeColor=#00FF00;fontSize=20;" vertex="1" parent="1">
          <mxGeometry x="1100" y="140" width="240" height="100" as="geometry" />
        </mxCell>
        <mxCell id="jCWdny8o6_WcaCbqRE-o-52" style="edgeStyle=orthogonalEdgeStyle;rounded=0;orthogonalLoop=1;jettySize=auto;html=1;exitX=0;exitY=0.5;exitDx=0;exitDy=0;entryX=1;entryY=0.5;entryDx=0;entryDy=0;fontSize=20;" edge="1" parent="1" source="jCWdny8o6_WcaCbqRE-o-48" target="jCWdny8o6_WcaCbqRE-o-25">
          <mxGeometry relative="1" as="geometry" />
        </mxCell>
        <mxCell id="jCWdny8o6_WcaCbqRE-o-48" value="Gateway&lt;br style=&quot;font-size: 17px;&quot;&gt;Internal Regional Load Balancer" style="rounded=0;whiteSpace=wrap;html=1;strokeColor=#00FF00;fontSize=17;" vertex="1" parent="1">
          <mxGeometry x="1080" y="570" width="120" height="100" as="geometry" />
        </mxCell>
        <mxCell id="jCWdny8o6_WcaCbqRE-o-53" style="edgeStyle=orthogonalEdgeStyle;rounded=0;orthogonalLoop=1;jettySize=auto;html=1;exitX=1;exitY=0.5;exitDx=0;exitDy=0;fontSize=20;" edge="1" parent="1" source="jCWdny8o6_WcaCbqRE-o-49" target="jCWdny8o6_WcaCbqRE-o-39">
          <mxGeometry relative="1" as="geometry" />
        </mxCell>
        <mxCell id="jCWdny8o6_WcaCbqRE-o-49" value="Gateway&lt;br style=&quot;font-size: 17px;&quot;&gt;Internal Regional Load Balancer" style="rounded=0;whiteSpace=wrap;html=1;strokeColor=#00FF00;fontSize=17;" vertex="1" parent="1">
          <mxGeometry x="1240" y="570" width="120" height="100" as="geometry" />
        </mxCell>
        <mxCell id="jCWdny8o6_WcaCbqRE-o-62" style="edgeStyle=orthogonalEdgeStyle;rounded=0;orthogonalLoop=1;jettySize=auto;html=1;exitX=0.5;exitY=1;exitDx=0;exitDy=0;entryX=0.5;entryY=0;entryDx=0;entryDy=0;fontSize=20;" edge="1" parent="1" source="jCWdny8o6_WcaCbqRE-o-61" target="jCWdny8o6_WcaCbqRE-o-47">
          <mxGeometry relative="1" as="geometry" />
        </mxCell>
        <mxCell id="jCWdny8o6_WcaCbqRE-o-61" value="Apigee" style="rounded=0;whiteSpace=wrap;html=1;fontSize=20;" vertex="1" parent="1">
          <mxGeometry x="1100" y="-50" width="240" height="100" as="geometry" />
        </mxCell>
        <mxCell id="jCWdny8o6_WcaCbqRE-o-64" style="edgeStyle=orthogonalEdgeStyle;rounded=0;orthogonalLoop=1;jettySize=auto;html=1;exitX=0.5;exitY=1;exitDx=0;exitDy=0;entryX=0.5;entryY=0;entryDx=0;entryDy=0;fontSize=20;" edge="1" parent="1" source="jCWdny8o6_WcaCbqRE-o-63" target="jCWdny8o6_WcaCbqRE-o-61">
          <mxGeometry relative="1" as="geometry" />
        </mxCell>
        <mxCell id="jCWdny8o6_WcaCbqRE-o-63" value="Akamai" style="rounded=0;whiteSpace=wrap;html=1;fontSize=20;" vertex="1" parent="1">
          <mxGeometry x="1100" y="-240" width="240" height="100" as="geometry" />
        </mxCell>
        <mxCell id="jCWdny8o6_WcaCbqRE-o-68" value="Multi-cluster Service" style="rounded=1;whiteSpace=wrap;html=1;fillColor=#f5f5f5;strokeColor=#FF66FF;dashed=1;dashPattern=1 2;fontColor=#333333;strokeWidth=2;fontSize=20;" vertex="1" parent="1">
          <mxGeometry x="900" y="365" width="620" height="90" as="geometry" />
        </mxCell>
        <mxCell id="jCWdny8o6_WcaCbqRE-o-69" style="edgeStyle=orthogonalEdgeStyle;rounded=0;orthogonalLoop=1;jettySize=auto;html=1;exitX=0.5;exitY=1;exitDx=0;exitDy=0;entryX=0.302;entryY=-0.039;entryDx=0;entryDy=0;entryPerimeter=0;fontSize=20;" edge="1" parent="1" source="jCWdny8o6_WcaCbqRE-o-47" target="jCWdny8o6_WcaCbqRE-o-68">
          <mxGeometry relative="1" as="geometry">
            <Array as="points">
              <mxPoint x="1220" y="300" />
              <mxPoint x="1087" y="300" />
            </Array>
          </mxGeometry>
        </mxCell>
        <mxCell id="jCWdny8o6_WcaCbqRE-o-70" style="edgeStyle=orthogonalEdgeStyle;rounded=0;orthogonalLoop=1;jettySize=auto;html=1;exitX=0.5;exitY=1;exitDx=0;exitDy=0;fontSize=20;" edge="1" parent="1" source="jCWdny8o6_WcaCbqRE-o-47">
          <mxGeometry relative="1" as="geometry">
            <mxPoint x="1350" y="360" as="targetPoint" />
            <Array as="points">
              <mxPoint x="1220" y="300" />
              <mxPoint x="1351" y="300" />
            </Array>
          </mxGeometry>
        </mxCell>
        <mxCell id="jCWdny8o6_WcaCbqRE-o-71" value="" style="rounded=0;whiteSpace=wrap;html=1;strokeColor=#00FF00;fontSize=20;" vertex="1" parent="1">
          <mxGeometry x="80" y="1120" width="120" height="50" as="geometry" />
        </mxCell>
        <mxCell id="jCWdny8o6_WcaCbqRE-o-72" value="Gateway - Managed by &lt;br style=&quot;font-size: 20px;&quot;&gt;Multi-cluster Gateway Controller" style="text;html=1;align=center;verticalAlign=middle;resizable=0;points=[];autosize=1;strokeColor=none;fillColor=none;fontSize=20;" vertex="1" parent="1">
          <mxGeometry x="200" y="1115" width="310" height="60" as="geometry" />
        </mxCell>
        <mxCell id="jCWdny8o6_WcaCbqRE-o-83" style="edgeStyle=orthogonalEdgeStyle;rounded=0;orthogonalLoop=1;jettySize=auto;html=1;exitX=0.5;exitY=0;exitDx=0;exitDy=0;entryX=0.5;entryY=1;entryDx=0;entryDy=0;fontSize=20;" edge="1" parent="1" source="jCWdny8o6_WcaCbqRE-o-82" target="jCWdny8o6_WcaCbqRE-o-48">
          <mxGeometry relative="1" as="geometry" />
        </mxCell>
        <mxCell id="jCWdny8o6_WcaCbqRE-o-84" style="edgeStyle=orthogonalEdgeStyle;rounded=0;orthogonalLoop=1;jettySize=auto;html=1;exitX=0.5;exitY=0;exitDx=0;exitDy=0;entryX=0.5;entryY=1;entryDx=0;entryDy=0;fontSize=20;" edge="1" parent="1" source="jCWdny8o6_WcaCbqRE-o-82" target="jCWdny8o6_WcaCbqRE-o-49">
          <mxGeometry relative="1" as="geometry" />
        </mxCell>
        <mxCell id="jCWdny8o6_WcaCbqRE-o-82" value="Internal Clients / Systems" style="rounded=0;whiteSpace=wrap;html=1;fontSize=20;" vertex="1" parent="1">
          <mxGeometry x="1100" y="1240" width="240" height="100" as="geometry" />
        </mxCell>
        <mxCell id="jCWdny8o6_WcaCbqRE-o-85" value="DNS LB" style="ellipse;whiteSpace=wrap;html=1;fontSize=20;" vertex="1" parent="1">
          <mxGeometry x="1160" y="920" width="120" height="80" as="geometry" />
        </mxCell>
        <mxCell id="jCWdny8o6_WcaCbqRE-o-88" value="" style="rounded=0;whiteSpace=wrap;html=1;strokeColor=#FF0000;dashed=1;dashPattern=8 8;fontSize=20;" vertex="1" parent="1">
          <mxGeometry x="560" y="1120" width="120" height="50" as="geometry" />
        </mxCell>
        <mxCell id="jCWdny8o6_WcaCbqRE-o-89" value="Service Mesh&amp;nbsp; Cross Cluster" style="text;html=1;align=center;verticalAlign=middle;resizable=0;points=[];autosize=1;strokeColor=none;fillColor=none;fontSize=20;" vertex="1" parent="1">
          <mxGeometry x="680" y="1125" width="280" height="40" as="geometry" />
        </mxCell>
        <mxCell id="jCWdny8o6_WcaCbqRE-o-94" value="" style="shape=flexArrow;endArrow=classic;startArrow=classic;html=1;rounded=0;exitX=1.001;exitY=0.795;exitDx=0;exitDy=0;exitPerimeter=0;width=16.666666666666668;endSize=9.73;startSize=9.73;fillColor=#cce5ff;strokeColor=default;labelBackgroundColor=none;fontSize=20;" edge="1" parent="1">
          <mxGeometry width="100" height="100" relative="1" as="geometry">
            <mxPoint x="1039.2399999999996" y="780" as="sourcePoint" />
            <mxPoint x="1400.77" y="780" as="targetPoint" />
          </mxGeometry>
        </mxCell>
        <mxCell id="jCWdny8o6_WcaCbqRE-o-100" value="Service Discovery and Routing" style="edgeLabel;html=1;align=center;verticalAlign=middle;resizable=0;points=[];labelBackgroundColor=none;fontStyle=1;fontSize=20;" vertex="1" connectable="0" parent="jCWdny8o6_WcaCbqRE-o-94">
          <mxGeometry x="0.0738" y="-6" relative="1" as="geometry">
            <mxPoint x="-13" y="-6" as="offset" />
          </mxGeometry>
        </mxCell>
        <mxCell id="jCWdny8o6_WcaCbqRE-o-106" style="edgeStyle=orthogonalEdgeStyle;rounded=0;orthogonalLoop=1;jettySize=auto;html=1;exitX=1;exitY=0.5;exitDx=0;exitDy=0;entryX=0;entryY=0.5;entryDx=0;entryDy=0;dashed=1;dashPattern=1 1;endArrow=none;endFill=0;fontSize=20;" edge="1" parent="1" source="jCWdny8o6_WcaCbqRE-o-102" target="jCWdny8o6_WcaCbqRE-o-18">
          <mxGeometry relative="1" as="geometry" />
        </mxCell>
        <mxCell id="jCWdny8o6_WcaCbqRE-o-102" value="Node Pool&amp;nbsp; &lt;br style=&quot;font-size: 20px;&quot;&gt;DXL Prod" style="rounded=0;whiteSpace=wrap;html=1;fontSize=20;" vertex="1" parent="1">
          <mxGeometry x="-90" y="367.5" width="100" height="85" as="geometry" />
        </mxCell>
        <mxCell id="jCWdny8o6_WcaCbqRE-o-103" value="Node Pool&amp;nbsp; &lt;br style=&quot;font-size: 18px;&quot;&gt;General Compute" style="rounded=0;whiteSpace=wrap;html=1;fontSize=18;" vertex="1" parent="1">
          <mxGeometry x="-90" y="680" width="100" height="85" as="geometry" />
        </mxCell>
        <mxCell id="jCWdny8o6_WcaCbqRE-o-104" style="rounded=0;orthogonalLoop=1;jettySize=auto;html=1;exitX=1;exitY=0.5;exitDx=0;exitDy=0;entryX=0.025;entryY=0.993;entryDx=0;entryDy=0;entryPerimeter=0;endArrow=none;endFill=0;dashed=1;dashPattern=1 1;fontSize=20;" edge="1" parent="1" source="jCWdny8o6_WcaCbqRE-o-103" target="jCWdny8o6_WcaCbqRE-o-25">
          <mxGeometry relative="1" as="geometry" />
        </mxCell>
        <mxCell id="jCWdny8o6_WcaCbqRE-o-105" style="rounded=0;orthogonalLoop=1;jettySize=auto;html=1;exitX=1;exitY=0.5;exitDx=0;exitDy=0;entryX=0.025;entryY=0.008;entryDx=0;entryDy=0;entryPerimeter=0;endArrow=none;endFill=0;dashed=1;dashPattern=1 1;fontSize=20;" edge="1" parent="1" source="jCWdny8o6_WcaCbqRE-o-103" target="jCWdny8o6_WcaCbqRE-o-26">
          <mxGeometry relative="1" as="geometry" />
        </mxCell>
        <mxCell id="jCWdny8o6_WcaCbqRE-o-111" style="edgeStyle=orthogonalEdgeStyle;rounded=0;orthogonalLoop=1;jettySize=auto;html=1;exitX=0;exitY=0.5;exitDx=0;exitDy=0;endArrow=none;endFill=0;dashed=1;dashPattern=1 1;fontSize=20;" edge="1" parent="1" source="jCWdny8o6_WcaCbqRE-o-107" target="jCWdny8o6_WcaCbqRE-o-38">
          <mxGeometry relative="1" as="geometry" />
        </mxCell>
        <mxCell id="jCWdny8o6_WcaCbqRE-o-107" value="Node Pool&amp;nbsp; &lt;br style=&quot;font-size: 20px;&quot;&gt;DXL Prod" style="rounded=0;whiteSpace=wrap;html=1;fontSize=20;" vertex="1" parent="1">
          <mxGeometry x="2440" y="367.5" width="100" height="85" as="geometry" />
        </mxCell>
        <mxCell id="jCWdny8o6_WcaCbqRE-o-108" value="Node Pool&amp;nbsp; &lt;br style=&quot;font-size: 18px;&quot;&gt;General Compute" style="rounded=0;whiteSpace=wrap;html=1;fontSize=18;" vertex="1" parent="1">
          <mxGeometry x="2440" y="680" width="100" height="85" as="geometry" />
        </mxCell>
        <mxCell id="jCWdny8o6_WcaCbqRE-o-109" style="rounded=0;orthogonalLoop=1;jettySize=auto;html=1;exitX=0;exitY=0.5;exitDx=0;exitDy=0;entryX=0.978;entryY=1;entryDx=0;entryDy=0;entryPerimeter=0;dashed=1;dashPattern=1 1;endArrow=none;endFill=0;fontSize=20;" edge="1" parent="1" source="jCWdny8o6_WcaCbqRE-o-108" target="jCWdny8o6_WcaCbqRE-o-39">
          <mxGeometry relative="1" as="geometry" />
        </mxCell>
        <mxCell id="jCWdny8o6_WcaCbqRE-o-110" style="rounded=0;orthogonalLoop=1;jettySize=auto;html=1;exitX=0;exitY=0.5;exitDx=0;exitDy=0;entryX=0.978;entryY=0;entryDx=0;entryDy=0;entryPerimeter=0;dashed=1;dashPattern=1 1;endArrow=none;endFill=0;fontSize=20;" edge="1" parent="1" source="jCWdny8o6_WcaCbqRE-o-108" target="jCWdny8o6_WcaCbqRE-o-40">
          <mxGeometry relative="1" as="geometry" />
        </mxCell>
        <mxCell id="jCWdny8o6_WcaCbqRE-o-116" value="" style="rhombus;whiteSpace=wrap;html=1;fillColor=#e1d5e7;strokeColor=#9673a6;fontSize=20;" vertex="1" parent="1">
          <mxGeometry x="525" y="615" width="30" height="30" as="geometry" />
        </mxCell>
        <mxCell id="jCWdny8o6_WcaCbqRE-o-117" value="" style="rhombus;whiteSpace=wrap;html=1;fillColor=#e1d5e7;strokeColor=#9673a6;fontSize=20;" vertex="1" parent="1">
          <mxGeometry x="520" y="815" width="30" height="30" as="geometry" />
        </mxCell>
        <mxCell id="jCWdny8o6_WcaCbqRE-o-118" value="" style="rhombus;whiteSpace=wrap;html=1;fillColor=#e1d5e7;strokeColor=#9673a6;fontSize=20;" vertex="1" parent="1">
          <mxGeometry x="1865" y="616" width="30" height="30" as="geometry" />
        </mxCell>
        <mxCell id="jCWdny8o6_WcaCbqRE-o-119" value="" style="rhombus;whiteSpace=wrap;html=1;fillColor=#e1d5e7;strokeColor=#9673a6;fontSize=20;" vertex="1" parent="1">
          <mxGeometry x="1860" y="820" width="30" height="30" as="geometry" />
        </mxCell>
        <mxCell id="jCWdny8o6_WcaCbqRE-o-120" value="" style="rhombus;whiteSpace=wrap;html=1;fillColor=#e1d5e7;strokeColor=#9673a6;fontSize=20;" vertex="1" parent="1">
          <mxGeometry x="1650" y="1125" width="30" height="30" as="geometry" />
        </mxCell>
        <mxCell id="jCWdny8o6_WcaCbqRE-o-121" value="Horizontal Pod Autoscaler" style="text;html=1;align=center;verticalAlign=middle;resizable=0;points=[];autosize=1;strokeColor=none;fillColor=none;fontSize=20;" vertex="1" parent="1">
          <mxGeometry x="1680" y="1120" width="250" height="40" as="geometry" />
        </mxCell>
      </root>
    </mxGraphModel>
  </diagram>
</mxfile>
